*******************************************************************************
                          Aaron's House (2012) DVDRip
*******************************************************************************

-------------------------------------------------------------------------------
                              General Information
-------------------------------------------------------------------------------
Type.................: Movie



Video Format.........: AVI
Video Bitrate........: 1171
Resolution...........: 720 x 414
Color................: 8 bit
FPS..................: 29.970
Source...............: DVD 1.739:1
Original Format......: NTSC
Genre................: Horror
IMDb Rating..........: 4.8
Movie Information....: http://www.imdb.com/title/tt1986761/

-------------------------------------------------------------------------------
                               Post Information
-------------------------------------------------------------------------------
Posted by............: RadioResearch
Posted on............: 4/24/2013

-------------------------------------------------------------------------------
                                 Release Notes
-------------------------------------------------------------------------------
SEEDBOX SUPPORTED!!

A paranormal researcher sets out to debunk the legends surrounding the infamous 
Aaron's House. 


This looks like a good Indie film!

Enjoy!
RadioResearch

General
Complete name                            : G:AVIaviAARONS_HOUSEAaron's House 
(2012) DVDRipAARONS_HOUSE.Title4.avi
Format                                   : AVI
Format/Info                              : Audio Video Interleave
File size                                : 736 MiB
Duration                                 : 1h 27mn
Overall bit rate                         : 1 171 Kbps
Movie name                               : AARONS_HOUSE.Title4.DVDRip
Writing application                      : Lavf53.32.100
Original source form/Name                : AARONS_HOUSE

Video
ID                                       : 0
Format                                   : MPEG-4 Visual
Format profile                           : Advanced Simple@L5
Format settings, BVOP                    : 2
Format settings, QPel                    : No
Format settings, GMC                     : No warppoints
Format settings, Matrix                  : Default (H.263)
Muxing mode                              : Packed bitstream
Codec ID                                 : XVID
Codec ID/Hint                            : XviD
Duration                                 : 1h 27mn
Bit rate                                 : 1 031 Kbps
Width                                    : 720 pixels
Height                                   : 414 pixels
Display aspect ratio                     : 1.739
Frame rate                               : 29.970 fps
Color space                              : YUV
Chroma subsampling                       : 4:2:0
Bit depth                                : 8 bits
Scan type                                : Progressive
Compression mode                         : Lossy
Bits/(Pixel*Frame)                       : 0.115
Stream size                              : 648 MiB (88%)
Writing library                          : XviD 64

Audio
ID                                       : 1
Format                                   : AC-3
Format/Info                              : Audio Coding 3
Mode extension                           : CM (complete main)
Format settings, Endianness              : Big
Codec ID                                 : 2000
Duration                                 : 1h 27mn
Bit rate mode                            : Constant
Bit rate                                 : 128 Kbps
Channel(s)                               : 2 channels
Channel positions                        : Front: L R
Sampling rate                            : 48.0 KHz
Bit depth                                : 16 bits
Compression mode                         : Lossy
Stream size                              : 80.4 MiB (11%)
Alignment                                : Aligned on interleaves
Interleave, duration                     : 32 ms (0.96 video frame)




-------------------------------------------------------------------------------
Generated with Cool NFO Creator - http://fly.to/coolbeans
-------------------------------------------------------------------------------
